<svg width="49" height="48" viewBox="0 0 49 48" fill="none" xmlns="http://www.w3.org/2000/svg">
<path fill-rule="evenodd" clip-rule="evenodd" d="M19.5192 16.0689L19.2519 16.2289C18.8416 16.4844 18.4584 16.7676 18.103 17.0746L16.4624 16.1274C15.5058 15.575 14.2826 15.9028 13.7303 16.8594L12.7305 18.5912C12.1782 19.5479 12.5061 20.7712 13.4629 21.3234L15.1052 22.2712C14.8874 23.4015 14.881 24.5756 15.1029 25.7297L13.4623 26.677C12.5057 27.2293 12.178 28.4525 12.7303 29.409L13.7303 31.1412C14.2826 32.0978 15.5058 32.4256 16.4624 31.8732L18.1028 30.9261C18.9912 31.6951 20.0109 32.2764 21.0985 32.6529V34.5482C21.0985 35.6527 21.9939 36.5482 23.0985 36.5482H25.0985C26.2031 36.5482 27.0985 35.6527 27.0985 34.5482V32.6549C27.542 32.5007 27.9788 32.3104 28.4052 32.0829L28.6774 31.9314C29.1895 31.6357 29.6622 31.2981 30.0938 30.9253L31.7345 31.8729C32.6911 32.4254 33.9145 32.0977 34.4668 31.141L35.4669 29.4088C36.0191 28.4524 35.6915 27.2293 34.7351 26.677L33.0925 25.7283C33.3103 24.598 33.3168 23.4241 33.0949 22.27L34.7345 21.3235C35.6911 20.7712 36.0189 19.548 35.4667 18.5914L34.4668 16.8596C33.9145 15.9029 32.6911 15.5752 31.7345 16.1277L30.0954 17.0744C29.2067 16.3049 28.1865 15.7234 27.0985 15.3468V13.4525C27.0985 12.3479 26.2031 11.4525 25.0985 11.4525H23.0985C21.9939 11.4525 21.0985 12.3479 21.0985 13.4525V15.3455C20.5599 15.5328 20.0312 15.7733 19.5192 16.0689ZM24.0967 29.4192C21.1066 29.4192 18.6827 26.9953 18.6827 24.0052C18.6827 21.0151 21.1066 18.5912 24.0967 18.5912C27.0868 18.5912 29.5107 21.0151 29.5107 24.0052C29.5107 26.9953 27.0868 29.4192 24.0967 29.4192Z" fill="#60604A"/>
</svg>
