<svg width="54" height="54" viewBox="0 0 54 54" fill="none" xmlns="http://www.w3.org/2000/svg">
<g filter="url(#filter0_d_10_14)">
<path fill-rule="evenodd" clip-rule="evenodd" d="M22.5147 1.23125C8.66674 2.89118 3.35864 12.9279 4.1805 26.1484C4.90051 37.7304 17.0851 46.8599 30.6754 44.7003C42.5979 42.8057 49.9517 31.6683 48.9553 20.0007C47.8297 6.82103 36.8798 -0.490654 22.5147 1.23125ZM37.8942 22.8834L17.5757 24.8945C17.3118 24.9206 17.1032 25.1278 17.0843 25.3923C16.9966 26.6248 16.8668 30.0802 17.9569 32.083C20.3269 36.4375 24.97 37.4836 29.8511 36.6159C34.5534 35.78 38.2884 34.2152 39.0981 29.5084C39.4155 27.6634 38.758 24.4887 38.4846 23.3018C38.4225 23.0321 38.1696 22.8561 37.8942 22.8834ZM24.1941 22.1108C23.3601 22.3646 20.4953 22.4734 19.9514 22.5097C19.4074 22.5459 18.7476 21.9992 18.6822 21.458C18.6822 21.458 17.0395 21.5879 16.8085 21.6056C16.5775 21.6234 16.116 21.5959 16.0769 20.8797C16.0378 20.1635 16.5686 20.1485 16.6885 20.1396C16.8085 20.1308 18.4953 20.0229 18.4953 20.0229C18.4576 19.5124 18.4652 19.0479 18.6822 18.5085C19.1606 17.3191 20.1296 16.7588 21.4914 16.6184C23.306 16.4313 24.4995 17.0502 25.0282 18.1735C25.3874 18.9368 25.3355 19.3431 25.4271 20.2976C25.5187 21.2522 25.0282 21.8569 24.1941 22.1108ZM28.4372 17.6326C28.2036 18.2596 28.3412 19.5069 28.5294 20.2142C28.7788 21.1516 29.8295 21.3887 30.2451 21.4749C30.6607 21.5612 31.7682 21.6308 32.6469 21.4884C33.5256 21.3459 34.0883 21.1456 34.6702 20.635C35.252 20.1244 35.4658 19.2971 35.4064 18.8657C35.7151 18.838 36.3848 18.7707 36.5938 18.7232C36.8551 18.6638 37.1282 18.4857 37.045 17.9158C36.9785 17.4598 36.5424 17.425 36.3326 17.4645L35.0858 17.6326L34.7683 16.9872C34.2612 16.0037 33.2163 15.5888 31.3108 15.7271C29.4053 15.8654 28.7292 16.8489 28.4372 17.6326Z" fill="white"/>
</g>
<defs>
<filter id="filter0_d_10_14" x="0.0985718" y="0.982279" width="52.9467" height="52.0361" filterUnits="userSpaceOnUse" color-interpolation-filters="sRGB">
<feFlood flood-opacity="0" result="BackgroundImageFix"/>
<feColorMatrix in="SourceAlpha" type="matrix" values="0 0 0 0 0 0 0 0 0 0 0 0 0 0 0 0 0 0 127 0" result="hardAlpha"/>
<feOffset dy="4"/>
<feGaussianBlur stdDeviation="2"/>
<feComposite in2="hardAlpha" operator="out"/>
<feColorMatrix type="matrix" values="0 0 0 0 0.413424 0 0 0 0 0.316958 0 0 0 0 0 0 0 0 0.25 0"/>
<feBlend mode="normal" in2="BackgroundImageFix" result="effect1_dropShadow_10_14"/>
<feBlend mode="normal" in="SourceGraphic" in2="effect1_dropShadow_10_14" result="shape"/>
</filter>
</defs>
</svg>
