<svg width="153" height="30" viewBox="0 0 153 30" fill="none" xmlns="http://www.w3.org/2000/svg">
<g filter="url(#filter0_d_10_12)">
<path fill-rule="evenodd" clip-rule="evenodd" d="M24.4245 3.99322C18.95 4.64944 16.8516 8.61722 17.1765 13.8437C17.4611 18.4223 22.2781 22.0315 27.6507 21.1777C32.364 20.4288 35.2711 16.0258 34.8772 11.4133C34.4323 6.20301 30.1034 3.3125 24.4245 3.99322ZM30.5045 12.5529L22.472 13.3479C22.3677 13.3583 22.2852 13.4402 22.2778 13.5447C22.2431 14.032 22.1918 15.398 22.6227 16.1898C23.5596 17.9112 25.3952 18.3248 27.3248 17.9817C29.1837 17.6513 30.6603 17.0327 30.9804 15.172C31.1059 14.4426 30.846 13.1875 30.7379 12.7183C30.7133 12.6117 30.6133 12.5421 30.5045 12.5529ZM25.0884 12.2475C24.7587 12.3478 23.6262 12.3908 23.4112 12.4052C23.1961 12.4195 22.9353 12.2034 22.9094 11.9894C22.9094 11.9894 22.26 12.0408 22.1687 12.0478C22.0774 12.0548 21.8949 12.0439 21.8795 11.7608C21.864 11.4776 22.0739 11.4717 22.1213 11.4682C22.1687 11.4647 22.8356 11.4221 22.8356 11.4221C22.8207 11.2203 22.8236 11.0366 22.9094 10.8234C23.0986 10.3532 23.4816 10.1317 24.02 10.0762C24.7373 10.0022 25.2092 10.2469 25.4182 10.691C25.5602 10.9927 25.5396 11.1533 25.5759 11.5307C25.6121 11.908 25.4182 12.1471 25.0884 12.2475ZM26.7659 10.4771C26.6735 10.725 26.7279 11.2181 26.8023 11.4977C26.9009 11.8683 27.3163 11.962 27.4806 11.9961C27.6449 12.0302 28.0827 12.0577 28.43 12.0014C28.7774 11.9451 28.9999 11.8659 29.2299 11.664C29.4599 11.4622 29.5444 11.1352 29.521 10.9646C29.643 10.9537 29.9078 10.9271 29.9904 10.9083C30.0937 10.8848 30.2016 10.8144 30.1688 10.5891C30.1425 10.4088 29.97 10.395 29.8871 10.4107L29.3942 10.4771L29.2687 10.222C29.0683 9.83318 28.6552 9.66916 27.9019 9.72383C27.1486 9.7785 26.8813 10.1673 26.7659 10.4771Z" fill="white"/>
<path d="M87.619 10.6364L85.875 3.77837C85.7822 3.41343 85.4536 3.15795 85.077 3.15795H79.9712C79.3796 3.15795 78.9098 3.6555 78.9437 4.24612L79.8798 20.548C79.9099 21.072 80.3689 21.4663 80.8914 21.4171L83.9306 21.1307C84.4362 21.083 84.8092 20.6371 84.7667 20.131L84.2781 14.3114L85.7982 20.0836C85.946 20.6448 86.4645 21.0273 87.0442 21.003L89.5564 20.8977C90.01 20.8787 90.3829 20.5337 90.4372 20.083L90.6772 18.0892L91.4995 13.5919L91.6754 19.813C91.6912 20.371 92.1932 20.7883 92.7446 20.7019L93.0072 20.6608C93.5603 20.5742 94.1194 20.5307 94.6793 20.5307H95.5017C96.0351 20.5307 96.4583 20.0813 96.4263 19.5489L95.4358 3.04C95.4191 2.76217 95.1845 2.54795 94.9063 2.55648L89.7425 2.71476C89.1397 2.73323 88.6385 3.18431 88.5567 3.78178L87.619 10.6364Z" fill="white"/>
<path fill-rule="evenodd" clip-rule="evenodd" d="M104.819 1.50406C99.1899 2.00922 96.2636 5.34743 96.3754 10.5248C96.4815 15.4331 99.1674 19.2274 105.132 19.5455C111.096 19.8636 113.777 15.5797 114.152 10.6451C114.537 5.71374 110.448 0.998905 104.819 1.50406ZM100.609 11.9441C100.593 14.025 102.044 15.6759 104.53 15.5524C108.354 15.3463 107.924 11.5822 107.874 11.2946C107.513 9.22582 105.448 7.99132 103.448 8.45605C101.737 8.85351 100.602 9.79783 100.609 11.9441Z" fill="white"/>
<path fill-rule="evenodd" clip-rule="evenodd" d="M123.153 17.4784C120.872 17.3852 118.148 16.6868 116.472 14.8477C114.796 13.0085 113.944 9.2837 114.782 6.2107C115.62 3.1377 117.38 2.06681 118.334 1.50808C119.289 0.949355 123.418 -0.172232 126.203 1.1356C129.448 2.65964 130.983 5.35006 131.045 8.9345C131.092 11.6117 130.021 13.8466 128.531 15.3133C127.041 16.78 125.435 17.5715 123.153 17.4784ZM127.646 7.398C127.918 9.01306 126.692 10.6451 124.992 10.6451C123.293 10.6451 121.881 9.79903 121.71 8.21281C121.541 6.65391 122.385 5.37262 124.294 5.13981C126.203 4.90701 127.385 5.84136 127.646 7.398Z" fill="white"/>
<path fill-rule="evenodd" clip-rule="evenodd" d="M131.95 2.12876L130.616 20.1466C130.571 20.7573 131.018 21.2923 131.628 21.3471C133.677 21.531 138.049 21.8702 139.874 21.6008C142.299 21.2432 144.095 20.761 145.988 18.7862C147.721 16.978 148.793 14.8048 148.793 12.7645C148.793 10.7243 149.135 5.58435 144.962 3.04078C141.634 1.01275 135.387 1.02085 132.991 1.10744C132.431 1.12768 131.991 1.56994 131.95 2.12876ZM138.102 15.5438L138.47 7.49652C138.475 7.38502 138.568 7.29867 138.679 7.30737C139.105 7.34067 140.112 7.47016 140.701 7.96466C141.848 8.92613 141.803 10.0328 141.803 11.3544C141.803 12.6247 141.496 14.3226 141.115 14.8802C140.733 15.4378 140.429 15.7351 139.845 15.804C139.407 15.8558 138.639 15.791 138.284 15.7555C138.177 15.7447 138.098 15.6516 138.102 15.5438Z" fill="white"/>
<path fill-rule="evenodd" clip-rule="evenodd" d="M53.6104 1.60739L54.6201 18.1812C54.6673 18.956 55.3185 19.5533 56.0941 19.521C57.6096 19.4577 60.0088 19.3277 61.4316 19.0991C63.6297 18.7458 65.6467 17.5843 67.1623 15.3553C68.9554 12.7184 69.2188 10.2495 68.4035 7.16658C67.6222 4.21158 66.7794 2.49564 64.1443 0.989245C62.3551 -0.033526 59.2558 0.293457 56.896 0.628536C56.3919 0.700112 55.1054 0.789354 54.2872 0.841862C53.8893 0.867391 53.5861 1.20948 53.6104 1.60739ZM62.3551 13.1743C61.9491 13.5202 61.0788 13.66 60.6203 13.7113C60.4552 13.7298 60.3117 13.6069 60.2964 13.4415L59.6163 6.0763C59.6018 5.91963 59.7079 5.77921 59.865 5.77074C60.2056 5.75236 60.8172 5.78086 61.4316 6.11523C62.3551 6.61782 62.8159 7.85338 62.9206 9.31929C63.0253 10.7852 62.9206 12.6927 62.3551 13.1743Z" fill="white"/>
<path fill-rule="evenodd" clip-rule="evenodd" d="M42.5553 3.10336C37.8165 4.02371 34.8625 7.39239 35.5844 12.9619C36.3063 18.5314 41.6369 21.4154 46.601 20.2415C51.0755 19.1833 53.8671 15.0527 53.3775 10.4809C52.8325 5.39147 47.5799 2.12749 42.5553 3.10336ZM39.0666 11.554C39.3397 13.6753 41.5331 15.1209 43.6104 14.6116C45.591 14.1259 46.8334 12.1284 46.3282 10.1527C45.8098 8.12537 43.6063 6.96311 41.6145 7.60472C39.8675 8.1675 38.8322 9.73362 39.0666 11.554Z" fill="white"/>
<path d="M4.66827 2.01802L4.04618 19.8511C4.01748 20.674 4.68256 21.3542 5.50585 21.3638C6.28843 21.3729 7.23253 21.3981 7.97444 21.4613C8.38535 21.4963 8.88995 21.5562 9.34006 21.6144C9.95711 21.6942 10.5126 21.2229 10.5228 20.6008L10.632 13.9173C10.634 13.7954 10.7409 13.7019 10.862 13.7163L13.7105 14.0531C14.2613 14.1182 14.7455 13.6879 14.7455 13.1332V9.75457C14.7455 9.0725 14.1925 8.51957 13.5105 8.51957H11.1513C11.0376 8.51957 10.9454 8.42741 10.9454 8.31374V6.9434C10.9454 6.88656 10.9898 6.84048 11.0467 6.84048H16.0297C16.2147 6.84048 16.5419 6.88042 16.873 6.92928C17.4308 7.01161 17.9481 6.60135 17.9718 6.03797L18.1275 2.34074C18.1468 1.88274 17.7883 1.49719 17.3301 1.48316L5.62232 1.12449C5.11254 1.10888 4.68605 1.50831 4.66827 2.01802Z" fill="white"/>
</g>
<defs>
<filter id="filter0_d_10_12" x="0.0452881" y="0.299618" width="152.755" height="29.4014" filterUnits="userSpaceOnUse" color-interpolation-filters="sRGB">
<feFlood flood-opacity="0" result="BackgroundImageFix"/>
<feColorMatrix in="SourceAlpha" type="matrix" values="0 0 0 0 0 0 0 0 0 0 0 0 0 0 0 0 0 0 127 0" result="hardAlpha"/>
<feOffset dy="4"/>
<feGaussianBlur stdDeviation="2"/>
<feComposite in2="hardAlpha" operator="out"/>
<feColorMatrix type="matrix" values="0 0 0 0 0.413424 0 0 0 0 0.316958 0 0 0 0 0 0 0 0 0.25 0"/>
<feBlend mode="normal" in2="BackgroundImageFix" result="effect1_dropShadow_10_12"/>
<feBlend mode="normal" in="SourceGraphic" in2="effect1_dropShadow_10_12" result="shape"/>
</filter>
</defs>
</svg>
